REM DIRINDEX 1\2\4\8,1\2\4\9,1\2\4\10,1\2\5\11,1\2\5\12,1\2\5\13,1\2\5\14,1\2\5\15,1\3\6\16,1\3\6\17,1\3\6\18,1\3\7\19,1\3\7\20,1\3\7\21,1\3\7\22,1\3\7\23
REM DIRNAME "folder01","folder02","folder03","folder04","folder05","folder06","folder07","folder08","folder09","folder10","folder11","folder12","folder13","folder14","folder15","folder16","folder17","folder18","folder19","folder20","folder21","folder22","folder23"
TITLE ""
FILE "LR_black_phrase_A05.mp3" MP3
  TRACK 01 AUDIO
    TITLE "0:"
    INDEX 01 00:00:00
  TRACK 02 AUDIO
    TITLE "19:cjc171_11601"
    INDEX 01 00:00:14
  TRACK 03 AUDIO
    TITLE "0:"
    INDEX 01 00:01:45
  TRACK 04 AUDIO
    TITLE "20:cjc171_11602"
    INDEX 01 00:02:07
  TRACK 05 AUDIO
    TITLE "0:"
    INDEX 01 00:04:67
  TRACK 06 AUDIO
    TITLE "21:cjc171_11603"
    INDEX 01 00:05:64
  TRACK 07 AUDIO
    TITLE "0:"
    INDEX 01 00:07:55
  TRACK 08 AUDIO
    TITLE "22:cjc171_11604"
    INDEX 01 00:08:12
  TRACK 09 AUDIO
    TITLE "0:"
    INDEX 01 00:10:13
  TRACK 10 AUDIO
    TITLE "23:cjc171_11605"
    INDEX 01 00:10:36
  TRACK 11 AUDIO
    TITLE "0:"
    INDEX 01 00:12:39
  TRACK 12 AUDIO
    TITLE "19:cjc171_11606"
    INDEX 01 00:13:44
  TRACK 13 AUDIO
    TITLE "0:"
    INDEX 01 00:14:73
  TRACK 14 AUDIO
    TITLE "20:cjc171_11607"
    INDEX 01 00:15:39
  TRACK 15 AUDIO
    TITLE "0:"
    INDEX 01 00:16:60
  TRACK 16 AUDIO
    TITLE "21:cjc171_11608"
    INDEX 01 00:17:60
  TRACK 17 AUDIO
    TITLE "0:"
    INDEX 01 00:20:03
  TRACK 18 AUDIO
    TITLE "22:cjc171_11609"
    INDEX 01 00:20:42
  TRACK 19 AUDIO
    TITLE "0:"
    INDEX 01 00:22:73
  TRACK 20 AUDIO
    TITLE "23:cjc171_11610"
    INDEX 01 00:23:27
  TRACK 21 AUDIO
    TITLE "0:"
    INDEX 01 00:25:57
  TRACK 22 AUDIO
    TITLE "19:cjc171_11611"
    INDEX 01 00:26:63
  TRACK 23 AUDIO
    TITLE "0:"
    INDEX 01 00:28:09
  TRACK 24 AUDIO
    TITLE "20:cjc171_11612"
    INDEX 01 00:28:50
  TRACK 25 AUDIO
    TITLE "0:"
    INDEX 01 00:30:60
  TRACK 26 AUDIO
    TITLE "21:cjc171_11613"
    INDEX 01 00:31:60
  TRACK 27 AUDIO
    TITLE "0:"
    INDEX 01 00:34:05
  TRACK 28 AUDIO
    TITLE "22:cjc171_11614"
    INDEX 01 00:34:44
  TRACK 29 AUDIO
    TITLE "0:"
    INDEX 01 00:37:21
  TRACK 30 AUDIO
    TITLE "23:cjc171_11615"
    INDEX 01 00:37:49
  TRACK 31 AUDIO
    TITLE "0:"
    INDEX 01 00:40:25
  TRACK 32 AUDIO
    TITLE "19:cjc171_11616"
    INDEX 01 00:41:25
  TRACK 33 AUDIO
    TITLE "0:"
    INDEX 01 00:42:40
  TRACK 34 AUDIO
    TITLE "20:cjc171_11617"
    INDEX 01 00:43:08
  TRACK 35 AUDIO
    TITLE "0:"
    INDEX 01 00:45:44
  TRACK 36 AUDIO
    TITLE "21:cjc171_11618"
    INDEX 01 00:46:42
  TRACK 37 AUDIO
    TITLE "0:"
    INDEX 01 00:48:52
  TRACK 38 AUDIO
    TITLE "22:cjc171_11619"
    INDEX 01 00:49:15
  TRACK 39 AUDIO
    TITLE "0:"
    INDEX 01 00:51:68
  TRACK 40 AUDIO
    TITLE "23:cjc171_11620"
    INDEX 01 00:52:15
  TRACK 41 AUDIO
    TITLE "0:"
    INDEX 01 00:54:71
  TRACK 42 AUDIO
    TITLE "19:cjc171_11621"
    INDEX 01 00:55:68
  TRACK 43 AUDIO
    TITLE "0:"
    INDEX 01 00:57:18
  TRACK 44 AUDIO
    TITLE "20:cjc171_11622"
    INDEX 01 00:57:55
  TRACK 45 AUDIO
    TITLE "0:"
    INDEX 01 00:59:05
  TRACK 46 AUDIO
    TITLE "21:cjc171_11623"
    INDEX 01 01:00:05
  TRACK 47 AUDIO
    TITLE "0:"
    INDEX 01 01:02:35
  TRACK 48 AUDIO
    TITLE "22:cjc171_11624"
    INDEX 01 01:02:72
  TRACK 49 AUDIO
    TITLE "0:"
    INDEX 01 01:05:23
  TRACK 50 AUDIO
    TITLE "23:cjc171_11625"
    INDEX 01 01:05:41
  TRACK 51 AUDIO
    TITLE "0:"
    INDEX 01 01:07:71
  TRACK 52 AUDIO
    TITLE "19:cjc171_11626"
    INDEX 01 01:08:65
  TRACK 53 AUDIO
    TITLE "0:"
    INDEX 01 01:09:66
  TRACK 54 AUDIO
    TITLE "20:cjc171_11627"
    INDEX 01 01:10:27
  TRACK 55 AUDIO
    TITLE "0:"
    INDEX 01 01:12:35
  TRACK 56 AUDIO
    TITLE "21:cjc171_11628"
    INDEX 01 01:13:37
  TRACK 57 AUDIO
    TITLE "0:"
    INDEX 01 01:15:47
  TRACK 58 AUDIO
    TITLE "22:cjc171_11629"
    INDEX 01 01:16:08
  TRACK 59 AUDIO
    TITLE "0:"
    INDEX 01 01:18:26
  TRACK 60 AUDIO
    TITLE "23:cjc171_11630"
    INDEX 01 01:18:48
  TRACK 61 AUDIO
    TITLE "0:"
    INDEX 01 01:20:66
  TRACK 62 AUDIO
    TITLE "19:cjc171_11631"
    INDEX 01 01:21:68
  TRACK 63 AUDIO
    TITLE "0:"
    INDEX 01 01:23:10
  TRACK 64 AUDIO
    TITLE "20:cjc171_11632"
    INDEX 01 01:23:45
  TRACK 65 AUDIO
    TITLE "0:"
    INDEX 01 01:25:05
  TRACK 66 AUDIO
    TITLE "21:cjc171_11633"
    INDEX 01 01:26:02
  TRACK 67 AUDIO
    TITLE "0:"
    INDEX 01 01:27:29
  TRACK 68 AUDIO
    TITLE "22:cjc171_11634"
    INDEX 01 01:27:64
  TRACK 69 AUDIO
    TITLE "0:"
    INDEX 01 01:29:47
  TRACK 70 AUDIO
    TITLE "23:cjc171_11635"
    INDEX 01 01:29:71
  TRACK 71 AUDIO
    TITLE "0:"
    INDEX 01 01:31:54
  TRACK 72 AUDIO
    TITLE "19:cjc171_11636"
    INDEX 01 01:32:60
  TRACK 73 AUDIO
    TITLE "0:"
    INDEX 01 01:34:25
  TRACK 74 AUDIO
    TITLE "20:cjc171_11637"
    INDEX 01 01:34:64
  TRACK 75 AUDIO
    TITLE "0:"
    INDEX 01 01:35:66
  TRACK 76 AUDIO
    TITLE "21:cjc171_11638"
    INDEX 01 01:36:57
  TRACK 77 AUDIO
    TITLE "0:"
    INDEX 01 01:39:07
  TRACK 78 AUDIO
    TITLE "22:cjc171_11639"
    INDEX 01 01:39:48
  TRACK 79 AUDIO
    TITLE "0:"
    INDEX 01 01:42:11
  TRACK 80 AUDIO
    TITLE "23:cjc171_11640"
    INDEX 01 01:42:40
  TRACK 81 AUDIO
    TITLE "0:"
    INDEX 01 01:45:03
  TRACK 82 AUDIO
    TITLE "19:cjc171_11641"
    INDEX 01 01:46:07
  TRACK 83 AUDIO
    TITLE "0:"
    INDEX 01 01:47:34
  TRACK 84 AUDIO
    TITLE "20:cjc171_11642"
    INDEX 01 01:48:00
  TRACK 85 AUDIO
    TITLE "0:"
    INDEX 01 01:50:40
  TRACK 86 AUDIO
    TITLE "21:cjc171_11643"
    INDEX 01 01:51:39
  TRACK 87 AUDIO
    TITLE "0:"
    INDEX 01 01:54:18
  TRACK 88 AUDIO
    TITLE "22:cjc171_11644"
    INDEX 01 01:54:57
  TRACK 89 AUDIO
    TITLE "0:"
    INDEX 01 01:57:65
  TRACK 90 AUDIO
    TITLE "23:cjc171_11645"
    INDEX 01 01:58:20
  TRACK 91 AUDIO
    TITLE "0:"
    INDEX 01 02:01:28
  TRACK 92 AUDIO
    TITLE "19:cjc171_11646"
    INDEX 01 02:02:29
  TRACK 93 AUDIO
    TITLE "0:"
    INDEX 01 02:03:40
  TRACK 94 AUDIO
    TITLE "20:cjc171_11647"
    INDEX 01 02:04:03
  TRACK 95 AUDIO
    TITLE "0:"
    INDEX 01 02:06:47
  TRACK 96 AUDIO
    TITLE "21:cjc171_11648"
    INDEX 01 02:07:42
  TRACK 97 AUDIO
    TITLE "0:"
    INDEX 01 02:10:44
  TRACK 98 AUDIO
    TITLE "22:cjc171_11649"
    INDEX 01 02:11:03
  TRACK 99 AUDIO
    TITLE "0:"
    INDEX 01 02:14:38
  TRACK 100 AUDIO
    TITLE "23:cjc171_11650"
    INDEX 01 02:14:66
  TRACK 101 AUDIO
    TITLE "0:"
    INDEX 01 02:18:26
  TRACK 102 AUDIO
    TITLE "19:cjc171_11651"
    INDEX 01 02:19:28
  TRACK 103 AUDIO
    TITLE "0:"
    INDEX 01 02:20:45
  TRACK 104 AUDIO
    TITLE "20:cjc171_11652"
    INDEX 01 02:21:05
  TRACK 105 AUDIO
    TITLE "0:"
    INDEX 01 02:24:00
  TRACK 106 AUDIO
    TITLE "21:cjc171_11653"
    INDEX 01 02:24:72
  TRACK 107 AUDIO
    TITLE "0:"
    INDEX 01 02:27:45
  TRACK 108 AUDIO
    TITLE "22:cjc171_11654"
    INDEX 01 02:28:05
  TRACK 109 AUDIO
    TITLE "0:"
    INDEX 01 02:30:71
  TRACK 110 AUDIO
    TITLE "23:cjc171_11655"
    INDEX 01 02:31:15
  TRACK 111 AUDIO
    TITLE "0:"
    INDEX 01 02:34:04
  TRACK 112 AUDIO
    TITLE "19:cjc171_11656"
    INDEX 01 02:35:03
  TRACK 113 AUDIO
    TITLE "0:"
    INDEX 01 02:36:09
  TRACK 114 AUDIO
    TITLE "20:cjc171_11657"
    INDEX 01 02:36:44
  TRACK 115 AUDIO
    TITLE "0:"
    INDEX 01 02:38:74
  TRACK 116 AUDIO
    TITLE "21:cjc171_11658"
    INDEX 01 02:40:02
  TRACK 117 AUDIO
    TITLE "0:"
    INDEX 01 02:42:01
  TRACK 118 AUDIO
    TITLE "22:cjc171_11659"
    INDEX 01 02:42:37
  TRACK 119 AUDIO
    TITLE "0:"
    INDEX 01 02:45:06
  TRACK 120 AUDIO
    TITLE "23:cjc171_11660"
    INDEX 01 02:45:27
  TRACK 121 AUDIO
    TITLE "0:"
    INDEX 01 02:47:69
  TRACK 122 AUDIO
    TITLE "19:cjc171_11661"
    INDEX 01 02:48:74
  TRACK 123 AUDIO
    TITLE "0:"
    INDEX 01 02:50:09
  TRACK 124 AUDIO
    TITLE "20:cjc171_11662"
    INDEX 01 02:50:48
  TRACK 125 AUDIO
    TITLE "0:"
    INDEX 01 02:51:51
  TRACK 126 AUDIO
    TITLE "21:cjc171_11663"
    INDEX 01 02:52:45
  TRACK 127 AUDIO
    TITLE "0:"
    INDEX 01 02:54:44
  TRACK 128 AUDIO
    TITLE "22:cjc171_11664"
    INDEX 01 02:55:08
  TRACK 129 AUDIO
    TITLE "0:"
    INDEX 01 02:56:74
  TRACK 130 AUDIO
    TITLE "23:cjc171_11665"
    INDEX 01 02:57:30
  TRACK 131 AUDIO
    TITLE "0:"
    INDEX 01 02:59:21
  TRACK 132 AUDIO
    TITLE "19:cjc171_11666"
    INDEX 01 03:00:27
  TRACK 133 AUDIO
    TITLE "0:"
    INDEX 01 03:01:36
  TRACK 134 AUDIO
    TITLE "20:cjc171_11667"
    INDEX 01 03:01:73
  TRACK 135 AUDIO
    TITLE "0:"
    INDEX 01 03:04:07
  TRACK 136 AUDIO
    TITLE "21:cjc171_11668"
    INDEX 01 03:05:06
  TRACK 137 AUDIO
    TITLE "0:"
    INDEX 01 03:06:35
  TRACK 138 AUDIO
    TITLE "22:cjc171_11669"
    INDEX 01 03:06:74
  TRACK 139 AUDIO
    TITLE "0:"
    INDEX 01 03:09:04
  TRACK 140 AUDIO
    TITLE "23:cjc171_11670"
    INDEX 01 03:09:33
  TRACK 141 AUDIO
    TITLE "0:"
    INDEX 01 03:11:36
  TRACK 142 AUDIO
    TITLE "19:cjc171_11671"
    INDEX 01 03:12:40
  TRACK 143 AUDIO
    TITLE "0:"
    INDEX 01 03:13:69
  TRACK 144 AUDIO
    TITLE "20:cjc171_11672"
    INDEX 01 03:14:35
  TRACK 145 AUDIO
    TITLE "0:"
    INDEX 01 03:15:44
  TRACK 146 AUDIO
    TITLE "21:cjc171_11673"
    INDEX 01 03:16:45
  TRACK 147 AUDIO
    TITLE "0:"
    INDEX 01 03:18:09
  TRACK 148 AUDIO
    TITLE "22:cjc171_11674"
    INDEX 01 03:18:48
  TRACK 149 AUDIO
    TITLE "0:"
    INDEX 01 03:20:39
  TRACK 150 AUDIO
    TITLE "23:cjc171_11675"
    INDEX 01 03:20:73
  TRACK 151 AUDIO
    TITLE "0:"
    INDEX 01 03:22:62
  TRACK 152 AUDIO
    TITLE "19:cjc171_11676"
    INDEX 01 03:23:63
  TRACK 153 AUDIO
    TITLE "0:"
    INDEX 01 03:24:68
  TRACK 154 AUDIO
    TITLE "20:cjc171_11677"
    INDEX 01 03:25:34
  TRACK 155 AUDIO
    TITLE "0:"
    INDEX 01 03:26:65
  TRACK 156 AUDIO
    TITLE "21:cjc171_11678"
    INDEX 01 03:27:65
  TRACK 157 AUDIO
    TITLE "0:"
    INDEX 01 03:30:67
  TRACK 158 AUDIO
    TITLE "22:cjc171_11679"
    INDEX 01 03:31:25
  TRACK 159 AUDIO
    TITLE "0:"
    INDEX 01 03:33:22
  TRACK 160 AUDIO
    TITLE "23:cjc171_11680"
    INDEX 01 03:33:42
  TRACK 161 AUDIO
    TITLE "0:"
    INDEX 01 03:35:39
  TRACK 162 AUDIO
    TITLE "19:cjc171_11681"
    INDEX 01 03:36:34
  TRACK 163 AUDIO
    TITLE "0:"
    INDEX 01 03:37:65
  TRACK 164 AUDIO
    TITLE "20:cjc171_11682"
    INDEX 01 03:38:27
  TRACK 165 AUDIO
    TITLE "0:"
    INDEX 01 03:41:16
  TRACK 166 AUDIO
    TITLE "21:cjc171_11683"
    INDEX 01 03:42:19
  TRACK 167 AUDIO
    TITLE "0:"
    INDEX 01 03:44:20
  TRACK 168 AUDIO
    TITLE "22:cjc171_11684"
    INDEX 01 03:44:55
  TRACK 169 AUDIO
    TITLE "0:"
    INDEX 01 03:47:01
  TRACK 170 AUDIO
    TITLE "23:cjc171_11685"
    INDEX 01 03:47:20
  TRACK 171 AUDIO
    TITLE "0:"
    INDEX 01 03:49:41
  TRACK 172 AUDIO
    TITLE "19:cjc171_11686"
    INDEX 01 03:50:34
  TRACK 173 AUDIO
    TITLE "0:"
    INDEX 01 03:51:40
  TRACK 174 AUDIO
    TITLE "20:cjc171_11687"
    INDEX 01 03:52:02
  TRACK 175 AUDIO
    TITLE "0:"
    INDEX 01 03:55:08
  TRACK 176 AUDIO
    TITLE "21:cjc171_11688"
    INDEX 01 03:56:08
  TRACK 177 AUDIO
    TITLE "0:"
    INDEX 01 03:59:63
  TRACK 178 AUDIO
    TITLE "22:cjc171_11689"
    INDEX 01 04:00:21
  TRACK 179 AUDIO
    TITLE "0:"
    INDEX 01 04:03:14
  TRACK 180 AUDIO
    TITLE "23:cjc171_11690"
    INDEX 01 04:03:35
  TRACK 181 AUDIO
    TITLE "0:"
    INDEX 01 04:06:26
  TRACK 182 AUDIO
    TITLE "19:cjc171_11691"
    INDEX 01 04:07:27
  TRACK 183 AUDIO
    TITLE "0:"
    INDEX 01 04:08:44
  TRACK 184 AUDIO
    TITLE "20:cjc171_11692"
    INDEX 01 04:09:10
  TRACK 185 AUDIO
    TITLE "0:"
    INDEX 01 04:12:05
  TRACK 186 AUDIO
    TITLE "21:cjc171_11693"
    INDEX 01 04:13:04
  TRACK 187 AUDIO
    TITLE "0:"
    INDEX 01 04:15:70
  TRACK 188 AUDIO
    TITLE "22:cjc171_11694"
    INDEX 01 04:16:34
  TRACK 189 AUDIO
    TITLE "0:"
    INDEX 01 04:19:05
  TRACK 190 AUDIO
    TITLE "23:cjc171_11695"
    INDEX 01 04:19:40
  TRACK 191 AUDIO
    TITLE "0:"
    INDEX 01 04:22:11
  TRACK 192 AUDIO
    TITLE "19:cjc171_11696"
    INDEX 01 04:23:22
  TRACK 193 AUDIO
    TITLE "0:"
    INDEX 01 04:24:45
  TRACK 194 AUDIO
    TITLE "20:cjc171_11697"
    INDEX 01 04:25:09
  TRACK 195 AUDIO
    TITLE "0:"
    INDEX 01 04:27:73
  TRACK 196 AUDIO
    TITLE "21:cjc171_11698"
    INDEX 01 04:28:72
  TRACK 197 AUDIO
    TITLE "0:"
    INDEX 01 04:30:57
  TRACK 198 AUDIO
    TITLE "22:cjc171_11699"
    INDEX 01 04:31:22
  TRACK 199 AUDIO
    TITLE "0:"
    INDEX 01 04:33:62
  TRACK 200 AUDIO
    TITLE "23:cjc171_11700"
    INDEX 01 04:34:20
  TRACK 201 AUDIO
    TITLE "0:"
    INDEX 01 04:36:60
  TRACK 202 AUDIO
    TITLE "19:cjc171_11701"
    INDEX 01 04:37:67
  TRACK 203 AUDIO
    TITLE "0:"
    INDEX 01 04:39:15
  TRACK 204 AUDIO
    TITLE "20:cjc171_11702"
    INDEX 01 04:39:54
  TRACK 205 AUDIO
    TITLE "0:"
    INDEX 01 04:41:12
  TRACK 206 AUDIO
    TITLE "21:cjc171_11703"
    INDEX 01 04:42:10
  TRACK 207 AUDIO
    TITLE "0:"
    INDEX 01 04:43:72
  TRACK 208 AUDIO
    TITLE "22:cjc171_11704"
    INDEX 01 04:44:44
  TRACK 209 AUDIO
    TITLE "0:"
    INDEX 01 04:46:23
  TRACK 210 AUDIO
    TITLE "23:cjc171_11705"
    INDEX 01 04:46:55
  TRACK 211 AUDIO
    TITLE "0:"
    INDEX 01 04:48:38
  TRACK 212 AUDIO
    TITLE "19:cjc171_11706"
    INDEX 01 04:49:37
  TRACK 213 AUDIO
    TITLE "0:"
    INDEX 01 04:50:58
  TRACK 214 AUDIO
    TITLE "20:cjc171_11707"
    INDEX 01 04:51:20
  TRACK 215 AUDIO
    TITLE "0:"
    INDEX 01 04:52:41
  TRACK 216 AUDIO
    TITLE "21:cjc171_11708"
    INDEX 01 04:53:39
  TRACK 217 AUDIO
    TITLE "0:"
    INDEX 01 04:57:23
  TRACK 218 AUDIO
    TITLE "22:cjc171_11709"
    INDEX 01 04:57:62
  TRACK 219 AUDIO
    TITLE "0:"
    INDEX 01 05:01:09
  TRACK 220 AUDIO
    TITLE "23:cjc171_11710"
    INDEX 01 05:01:34
  TRACK 221 AUDIO
    TITLE "0:"
    INDEX 01 05:04:56
  TRACK 222 AUDIO
    TITLE "19:cjc171_11711"
    INDEX 01 05:05:52
  TRACK 223 AUDIO
    TITLE "0:"
    INDEX 01 05:07:02
  TRACK 224 AUDIO
    TITLE "20:cjc171_11712"
    INDEX 01 05:07:37
  TRACK 225 AUDIO
    TITLE "0:"
    INDEX 01 05:09:65
  TRACK 226 AUDIO
    TITLE "21:cjc171_11713"
    INDEX 01 05:10:65
  TRACK 227 AUDIO
    TITLE "0:"
    INDEX 01 05:12:42
  TRACK 228 AUDIO
    TITLE "22:cjc171_11714"
    INDEX 01 05:13:00
  TRACK 229 AUDIO
    TITLE "0:"
    INDEX 01 05:15:13
  TRACK 230 AUDIO
    TITLE "23:cjc171_11715"
    INDEX 01 05:15:35
  TRACK 231 AUDIO
    TITLE "0:"
    INDEX 01 05:17:45
  TRACK 232 AUDIO
    TITLE "19:cjc171_11716"
    INDEX 01 05:18:39
  TRACK 233 AUDIO
    TITLE "0:"
    INDEX 01 05:19:46
  TRACK 234 AUDIO
    TITLE "20:cjc171_11717"
    INDEX 01 05:20:06
  TRACK 235 AUDIO
    TITLE "0:"
    INDEX 01 05:21:45
  TRACK 236 AUDIO
    TITLE "21:cjc171_11718"
    INDEX 01 05:22:48
  TRACK 237 AUDIO
    TITLE "0:"
    INDEX 01 05:24:36
  TRACK 238 AUDIO
    TITLE "22:cjc171_11719"
    INDEX 01 05:24:71
  TRACK 239 AUDIO
    TITLE "0:"
    INDEX 01 05:26:50
  TRACK 240 AUDIO
    TITLE "23:cjc171_11720"
    INDEX 01 05:26:68
  TRACK 241 AUDIO
    TITLE "0:"
    INDEX 01 05:28:47
  TRACK 242 AUDIO
    TITLE "19:cjc171_11721"
    INDEX 01 05:29:45
  TRACK 243 AUDIO
    TITLE "0:"
    INDEX 01 05:31:00
  TRACK 244 AUDIO
    TITLE "20:cjc171_11722"
    INDEX 01 05:31:43
  TRACK 245 AUDIO
    TITLE "0:"
    INDEX 01 05:33:72
  TRACK 246 AUDIO
    TITLE "21:cjc171_11723"
    INDEX 01 05:34:71
  TRACK 247 AUDIO
    TITLE "0:"
    INDEX 01 05:37:28
  TRACK 248 AUDIO
    TITLE "22:cjc171_11724"
    INDEX 01 05:37:70
  TRACK 249 AUDIO
    TITLE "0:"
    INDEX 01 05:39:74
  TRACK 250 AUDIO
    TITLE "23:cjc171_11725"
    INDEX 01 05:40:25
  TRACK 251 AUDIO
    TITLE "0:"
    INDEX 01 05:42:33
  TRACK 252 AUDIO
    TITLE "19:cjc171_11726"
    INDEX 01 05:43:35
  TRACK 253 AUDIO
    TITLE "0:"
    INDEX 01 05:44:34
  TRACK 254 AUDIO
    TITLE "20:cjc171_11727"
    INDEX 01 05:44:72
  TRACK 255 AUDIO
    TITLE "0:"
    INDEX 01 05:47:52
  TRACK 256 AUDIO
    TITLE "21:cjc171_11728"
    INDEX 01 05:48:54
  TRACK 257 AUDIO
    TITLE "0:"
    INDEX 01 05:50:43
  TRACK 258 AUDIO
    TITLE "22:cjc171_11729"
    INDEX 01 05:51:07
  TRACK 259 AUDIO
    TITLE "0:"
    INDEX 01 05:52:53
  TRACK 260 AUDIO
    TITLE "23:cjc171_11730"
    INDEX 01 05:53:08
  TRACK 261 AUDIO
    TITLE "0:"
    INDEX 01 05:54:52
  TRACK 262 AUDIO
    TITLE "19:cjc171_11731"
    INDEX 01 05:55:58
  TRACK 263 AUDIO
    TITLE "0:"
    INDEX 01 05:57:02
  TRACK 264 AUDIO
    TITLE "20:cjc171_11732"
    INDEX 01 05:57:39
  TRACK 265 AUDIO
    TITLE "0:"
    INDEX 01 05:59:67
  TRACK 266 AUDIO
    TITLE "21:cjc171_11733"
    INDEX 01 06:00:65
  TRACK 267 AUDIO
    TITLE "0:"
    INDEX 01 06:02:42
  TRACK 268 AUDIO
    TITLE "22:cjc171_11734"
    INDEX 01 06:03:06
  TRACK 269 AUDIO
    TITLE "0:"
    INDEX 01 06:05:40
  TRACK 270 AUDIO
    TITLE "23:cjc171_11735"
    INDEX 01 06:05:70
  TRACK 271 AUDIO
    TITLE "0:"
    INDEX 01 06:08:27
  TRACK 272 AUDIO
    TITLE "19:cjc171_11736"
    INDEX 01 06:09:26
  TRACK 273 AUDIO
    TITLE "0:"
    INDEX 01 06:10:61
  TRACK 274 AUDIO
    TITLE "20:cjc171_11737"
    INDEX 01 06:11:21
  TRACK 275 AUDIO
    TITLE "0:"
    INDEX 01 06:12:60
  TRACK 276 AUDIO
    TITLE "21:cjc171_11738"
    INDEX 01 06:13:61
  TRACK 277 AUDIO
    TITLE "0:"
    INDEX 01 06:16:24
  TRACK 278 AUDIO
    TITLE "22:cjc171_11739"
    INDEX 01 06:16:58
  TRACK 279 AUDIO
    TITLE "0:"
    INDEX 01 06:19:35
  TRACK 280 AUDIO
    TITLE "23:cjc171_11740"
    INDEX 01 06:19:54
  TRACK 281 AUDIO
    TITLE "0:"
    INDEX 01 06:22:33
  TRACK 282 AUDIO
    TITLE "19:cjc171_11741"
    INDEX 01 06:23:27
  TRACK 283 AUDIO
    TITLE "0:"
    INDEX 01 06:24:34
  TRACK 284 AUDIO
    TITLE "20:cjc171_11742"
    INDEX 01 06:24:69
  TRACK 285 AUDIO
    TITLE "0:"
    INDEX 01 06:26:25
  TRACK 286 AUDIO
    TITLE "21:cjc171_11743"
    INDEX 01 06:27:32
  TRACK 287 AUDIO
    TITLE "0:"
    INDEX 01 06:29:53
  TRACK 288 AUDIO
    TITLE "22:cjc171_11744"
    INDEX 01 06:30:15
  TRACK 289 AUDIO
    TITLE "0:"
    INDEX 01 06:32:18
  TRACK 290 AUDIO
    TITLE "23:cjc171_11745"
    INDEX 01 06:32:37
  TRACK 291 AUDIO
    TITLE "0:"
    INDEX 01 06:34:40
  TRACK 292 AUDIO
    TITLE "19:cjc171_11746"
    INDEX 01 06:35:36
  TRACK 293 AUDIO
    TITLE "0:"
    INDEX 01 06:36:66
  TRACK 294 AUDIO
    TITLE "20:cjc171_11747"
    INDEX 01 06:37:29
  TRACK 295 AUDIO
    TITLE "0:"
    INDEX 01 06:38:61
  TRACK 296 AUDIO
    TITLE "21:cjc171_11748"
    INDEX 01 06:39:57
  TRACK 297 AUDIO
    TITLE "0:"
    INDEX 01 06:42:14
  TRACK 298 AUDIO
    TITLE "22:cjc171_11749"
    INDEX 01 06:42:47
  TRACK 299 AUDIO
    TITLE "0:"
    INDEX 01 06:44:54
  TRACK 300 AUDIO
    TITLE "23:cjc171_11750"
    INDEX 01 06:45:01
  TRACK 301 AUDIO
    TITLE "0:"
    INDEX 01 06:47:07
